<svg width="30" height="28" viewBox="0 0 30 28" fill="none" xmlns="http://www.w3.org/2000/svg">
<path d="M30 2.32227V25.6719C30 26.4746 29.2567 27.1191 28.346 27.1191H20.6987V16.959H24.596L25.1786 12.998H20.692V10.4668C20.692 9.31836 21.0536 8.53906 22.9353 8.53906H25.3326V4.99414C24.9174 4.94727 23.4978 4.83594 21.8371 4.83594C18.3817 4.83594 16.0112 6.68164 16.0112 10.0742V12.998H12.1004V16.959H16.0112V27.125H1.65402C0.743304 27.125 0 26.4746 0 25.6777V2.32227C0 1.52539 0.743304 0.875 1.65402 0.875H28.3393C29.2567 0.875 30 1.52539 30 2.32227Z" fill="black"/>
</svg>
